<?xml version="1.0" standalone="no"?><!DOCTYPE svg PUBLIC "-//W3C//DTD SVG 1.1//EN" "http://www.w3.org/Graphics/SVG/1.1/DTD/svg11.dtd"><svg t="1693887105450" class="icon" viewBox="0 0 1024 1024" version="1.1" xmlns="http://www.w3.org/2000/svg" p-id="2104" xmlns:xlink="http://www.w3.org/1999/xlink" width="200" height="200"><path d="M778.666667 277.333333h128a32 32 0 0 0 32-32v-128a32.426667 32.426667 0 0 0-32-32h-128a32 32 0 0 0-32 32v128a31.573333 31.573333 0 0 0 32 32z m32-128h64V213.333333H810.666667zM576 85.333333h-128a32 32 0 0 0-32 32v128a31.573333 31.573333 0 0 0 32 32h128a32 32 0 0 0 32-32v-128A32.426667 32.426667 0 0 0 576 85.333333z m-32 128h-64V149.333333h64zM245.333333 85.333333h-128a32.426667 32.426667 0 0 0-32 32v128a32 32 0 0 0 32 32h128a31.573333 31.573333 0 0 0 32-32v-128A32 32 0 0 0 245.333333 85.333333zM213.333333 213.333333H149.333333V149.333333H213.333333zM906.666667 746.666667h-128a31.573333 31.573333 0 0 0-32 32v128a32 32 0 0 0 32 32h128a32.426667 32.426667 0 0 0 32-32v-128a32 32 0 0 0-32-32z m-32 128H810.666667V810.666667h64zM906.666667 416h-128a32 32 0 0 0-32 32v128a32 32 0 0 0 32 32h128a32.426667 32.426667 0 0 0 32-32v-128a32.426667 32.426667 0 0 0-32-32z m-32 128H810.666667v-64h64zM576 746.666667h-128a31.573333 31.573333 0 0 0-32 32v128a32 32 0 0 0 32 32h128a32.426667 32.426667 0 0 0 32-32v-128a32 32 0 0 0-32-32z m-32 128h-64V810.666667h64zM245.333333 746.666667h-128a32 32 0 0 0-32 32v128a32.426667 32.426667 0 0 0 32 32h128a32 32 0 0 0 32-32v-128a31.573333 31.573333 0 0 0-32-32z m-32 128H149.333333V810.666667H213.333333zM245.333333 416h-128a32.426667 32.426667 0 0 0-32 32v128a32.426667 32.426667 0 0 0 32 32h128a32 32 0 0 0 32-32v-128a32 32 0 0 0-32-32z m-32 128H149.333333v-64H213.333333zM576 416h-128a32 32 0 0 0-32 32v128a32 32 0 0 0 32 32h128a32.426667 32.426667 0 0 0 32-32v-128a32.426667 32.426667 0 0 0-32-32z m-32 128h-64v-64h64z" fill="#e6e6e6" p-id="2105"></path></svg>